<?xml version="1.0" encoding="UTF-8"?>
<svg xmlns="http://www.w3.org/2000/svg" xmlns:xlink="http://www.w3.org/1999/xlink" width="0" height="0">
<defs>
	<symbol id="subuh" viewBox="0 0 24 24"><path fill="currentColor" d="M12 3a1 1 0 0 1 1 1v1a1 1 0 1 1-2 0V4a1 1 0 0 1 1-1ZM22 13a1 1 0 0 1-1 1h-1a1 1 0 1 1 0-2h1a1 1 0 0 1 1 1ZM4 14a1 1 0 1 0 0-2H3a1 1 0 1 0 0 2h1ZM7.05 8.05a1 1 0 0 1-1.414 0l-.707-.707A1 1 0 0 1 6.343 5.93l.707.707a1 1 0 0 1 0 1.414ZM17.657 5.929l-.707.707a1 1 0 0 0 1.414 1.414l.707-.707a1 1 0 0 0-1.414-1.414ZM20 19a1 1 0 0 1-1 1H5a1 1 0 1 1 0-2h14a1 1 0 0 1 1 1ZM8.889 14.605a3.502 3.502 0 0 1 5.586-4.08 3.502 3.502 0 0 1 .636 4.08 1 1 0 1 0 1.777.918 5.502 5.502 0 0 0-8.777-6.412 5.502 5.502 0 0 0-1 6.412 1 1 0 0 0 1.778-.918Z"/></symbol>
	<symbol id="dzuhur" viewBox="0 0 24 24"><path fill="currentColor" d="M12 2a1 1 0 0 1 1 1v1a1 1 0 1 1-2 0V3a1 1 0 0 1 1-1ZM12 19a1 1 0 0 1 1 1v1a1 1 0 1 1-2 0v-1a1 1 0 0 1 1-1ZM21 13a1 1 0 1 0 0-2h-1a1 1 0 1 0 0 2h1ZM5 12a1 1 0 0 1-1 1H3a1 1 0 1 1 0-2h1a1 1 0 0 1 1 1ZM16.95 18.364l.707.707a1 1 0 0 0 1.414-1.414l-.707-.707a1 1 0 0 0-1.414 1.414ZM7.05 7.05a1 1 0 0 1-1.414 0l-.707-.707A1 1 0 0 1 6.343 4.93l.707.707a1 1 0 0 1 0 1.414ZM4.929 17.657a1 1 0 1 0 1.414 1.414l.707-.707a1 1 0 0 0-1.414-1.414l-.707.707ZM16.95 7.05a1 1 0 0 1 0-1.414l.707-.707a1 1 0 1 1 1.414 1.414l-.707.707a1 1 0 0 1-1.414 0Z"/><path fill="currentColor" fill-rule="evenodd" d="M12 6.5a5.5 5.5 0 1 0 0 11 5.5 5.5 0 0 0 0-11ZM8.5 12a3.5 3.5 0 1 1 7 0 3.5 3.5 0 0 1-7 0Z" clip-rule="evenodd"/></symbol>
	<symbol id="ashar" viewBox="0 0 24 24"><path fill="currentColor" d="M13 3a1 1 0 1 0-2 0v1a1 1 0 1 0 2 0V3ZM13 16a1 1 0 1 0-2 0v2.586l-.293-.293a1 1 0 0 0-1.414 1.414l2 2a1 1 0 0 0 1.414 0l2-2a1 1 0 0 0-1.414-1.414l-.293.293V16ZM21 13a1 1 0 1 0 0-2h-1a1 1 0 1 0 0 2h1ZM5 12a1 1 0 0 1-1 1H3a1 1 0 1 1 0-2h1a1 1 0 0 1 1 1ZM19.071 17.657l-.707-.707a1 1 0 0 0-1.414 1.414l.707.707a1 1 0 0 0 1.414-1.414ZM7.05 7.05a1 1 0 0 1-1.414 0l-.707-.707A1 1 0 0 1 6.343 4.93l.707.707a1 1 0 0 1 0 1.414ZM4.929 17.657a1 1 0 1 0 1.414 1.414l.707-.707a1 1 0 0 0-1.414-1.414l-.707.707ZM16.95 7.05a1 1 0 0 1 0-1.414l.707-.707a1 1 0 1 1 1.414 1.414l-.707.707a1 1 0 0 1-1.414 0Z"/><path fill="currentColor" d="M8.889 13.605a3.502 3.502 0 0 1 5.586-4.08 3.502 3.502 0 0 1 .636 4.08 1 1 0 1 0 1.777.918 5.502 5.502 0 0 0-8.777-6.412 5.502 5.502 0 0 0-1 6.412 1 1 0 0 0 1.778-.918Z"/></symbol>
	<symbol id="maghrib" viewBox="0 0 24 24"><path fill="currentColor" d="M11.769 5.482a1 1 0 0 0-1.055-1.466 7.108 7.108 0 0 0-4.097 11.638 1 1 0 0 0 1.512-1.308 5.082 5.082 0 0 1-1.242-3.339c0-1.834.967-3.443 2.42-4.343a6.234 6.234 0 0 0 7.03 7.03c-.144.23-.304.448-.48.652a1 1 0 1 0 1.512 1.308 7.084 7.084 0 0 0 1.615-3.368 1 1 0 0 0-1.466-1.055 4.234 4.234 0 0 1-5.75-5.75ZM19 20a1 1 0 1 0 0-2H5a1 1 0 1 0 0 2h14Z"/></symbol>
	<symbol id="isya" viewBox="0 0 24 24"><path fill="currentColor" fill-rule="evenodd" d="M11.55 4.529a1 1 0 0 1 .065 1.066 5 5 0 0 0 6.79 6.79 1 1 0 0 1 1.465 1.055 8 8 0 1 1-9.31-9.31 1 1 0 0 1 .99.399Zm-2.436 2.21a6 6 0 1 0 8.148 8.148 7 7 0 0 1-8.148-8.148Z" clip-rule="evenodd"/></symbol>
	<symbol id="tabler-map-pin" viewBox="0 0 24 24"><g fill="none" stroke="currentColor" stroke-linecap="round" stroke-linejoin="round" stroke-width="1.5"><path d="M9 11a3 3 0 1 0 6 0a3 3 0 1 0-6 0"></path><path d="M17.657 16.657L13.414 20.9a2 2 0 0 1-2.827 0l-4.244-4.243a8 8 0 1 1 11.314 0z"></path></g></symbol>
</defs>
</svg>
